<?xml version="1.0" encoding="utf-8"?>
<!-- Generator: Adobe Illustrator 25.4.1, SVG Export Plug-In . SVG Version: 6.00 Build 0)  -->
<svg version="1.1" id="Laag_1" xmlns="http://www.w3.org/2000/svg" xmlns:xlink="http://www.w3.org/1999/xlink" x="0px" y="0px"
	 viewBox="0 0 1324.62 504.49" style="enable-background:new 0 0 1324.62 504.49;" xml:space="preserve">
<style type="text/css">
	.st0{opacity:0.61;fill:none;stroke:#B2B2B2;stroke-miterlimit:10;}
	.st1{fill:#008D36;}
	.st2{font-family:'Roboto-Bold';}
	.st3{font-size:23px;}
	.st4{fill:#F39200;}
	.st5{font-size:28px;}
</style>
<line class="st0" x1="192.12" y1="252.33" x2="1316.12" y2="252.33"/>
<line class="st0" x1="193.12" y1="332.33" x2="1317.12" y2="332.33"/>
<line class="st0" x1="199.62" y1="409.68" x2="1323.62" y2="409.68"/>
<line class="st0" x1="200.62" y1="489.68" x2="1324.62" y2="489.68"/>
<line class="st0" x1="192.62" y1="96.04" x2="1316.62" y2="96.04"/>
<line class="st0" x1="193.62" y1="176.04" x2="1317.62" y2="176.04"/>
<g>
	<g>
		<path class="st1" d="M206.71,107.56c29.19,21.2,61.9,40.23,95.97,52.21c18.51,6.51,36.7,8.5,56.15,8.68
			c20.32,0.18,40.64-0.39,60.94-0.98c43.9-1.28,87.89-3.61,131.82-2.94c11.47,0.17,24.45-0.45,35.5,3.21
			c4.27,1.42,8.48,3.11,12.61,4.9c14.66,6.35,28.57,14.53,42.48,22.32C681.9,217.2,721.4,239.83,761,262.29
			c30.15,17.1,60.31,34.17,90.53,51.13c10.69,6,21.66,11.67,32.15,18.01c7.95,4.8,14.88,12.18,22.02,18.11
			c6.33,5.25,12.72,10.44,19.17,15.55c43.03,34.1,89.06,65.59,139.32,88.1c31.36,14.04,64.83,24.59,99.26,27.01
			c20.29,1.43,40.82,0.78,61.14,0.79c21.71,0.01,43.41-0.08,65.12-0.21c3.75-0.02,7.49-0.05,11.24-0.08c0.32,0-1.52-4.03-2.67-4.02
			c-37.88,0.29-75.77,0.49-113.66,0.15c-15.21-0.14-30.21-0.7-45.24-3.19c-16.79-2.78-33.26-7.3-49.3-12.99
			c-47.02-16.67-90.39-42.8-130.81-71.71c-13.5-9.66-26.71-19.71-39.68-30.07c-7.37-5.88-14.65-11.87-21.87-17.94
			c-5.78-4.87-11.18-10.43-17.79-14.13c-25.62-14.32-51.2-28.7-76.75-43.14c-48.15-27.21-96.18-54.63-144.32-81.84
			c-18.07-10.21-36.05-20.83-54.73-29.93c-10.47-5.1-21-9.38-32.69-10.41c-16.63-1.47-33.45-1.16-50.12-0.94
			c-22.55,0.3-45.09,1.04-67.63,1.76c-22.59,0.72-45.19,1.5-67.79,1.91c-16.94,0.31-34.03,0.76-50.94-0.5
			c-23.91-1.78-46.98-11.7-68.18-22.32c-18.67-9.35-36.65-20.13-53.95-31.83c-2.79-1.89-5.58-3.79-8.31-5.77
			C203.9,103.35,205.84,106.93,206.71,107.56L206.71,107.56z"/>
	</g>
</g>
<text transform="matrix(1 0 0 1 178.5972 496.9639)" class="st1 st2 st3">0</text>
<text transform="matrix(1 0 0 1 152.2056 422.7979)" class="st1 st2 st3">200</text>
<text transform="matrix(1 0 0 1 152.2056 340.8564)" class="st1 st2 st3">400</text>
<text transform="matrix(1 0 0 1 152.2056 263.0391)" class="st1 st2 st3">600</text>
<text transform="matrix(1 0 0 1 152.2056 183.3682)" class="st1 st2 st3">800</text>
<text transform="matrix(1 0 0 1 139.0098 105.6807)" class="st1 st2 st3">1000</text>
<text transform="matrix(1 0 0 1 81.2939 106.6099)" class="st4 st2 st3">200</text>
<text transform="matrix(1 0 0 1 81.2941 183.9482)" class="st4 st2 st3">150</text>
<text transform="matrix(1 0 0 1 81.2939 263.6187)" class="st4 st2 st3">100</text>
<text transform="matrix(1 0 0 1 94.4895 423.377)" class="st4 st2 st3">50</text>
<text transform="matrix(1 0 0 1 107.6854 498.2603)" class="st4 st2 st3">0</text>
<text transform="matrix(1 0 0 1 94.4897 341.436)" class="st4 st2 st3">75</text>
<path class="st4" d="M207.62,147.68"/>
<g>
	<g>
		<path class="st4" d="M202.21,148.54c37.44,0.96,74.91,0.39,112.35-0.26c46.38-0.81,92.76-1.92,139.15-2.66
			c51.48-0.81,102.97-1.2,154.45-0.52c52.44,0.69,104.88,2.46,157.19,6.3c48.54,3.56,97.03,8.84,144.91,17.69
			c41.41,7.66,82.82,17.88,121.66,34.4c4.16,1.77,8.29,3.62,12.38,5.55c2.65,1.25,7.47,2.63,9.12,4.87
			c1.41,1.91,2.14,5.14,3.21,7.31c4.73,9.59,10.12,18.87,15.57,28.06c18.41,31.06,38.59,61.13,60.04,90.16
			c24.81,33.57,51.5,66.17,81.88,94.89c23.86,22.56,51.85,45.52,84.39,53.69c6.29,1.58,12.7,2.49,19.19,2.57
			c2.27,0.03-2.2-1.82-3.18-1.84c-32.88-0.42-63.18-24.63-86.55-45.36c-31.54-27.98-58.9-60.62-84.27-94.18
			c-22.39-29.63-43.34-60.42-62.58-92.19c-6.2-10.24-12.29-20.58-17.81-31.21c-1.53-2.94-3.07-5.91-4.33-8.98
			c-0.3-0.72-0.49-2-0.95-2.61c-1.73-2.29-6.94-3.82-9.55-5.06c-35.8-17.12-74.43-28.13-113.12-36.5
			c-45.92-9.93-92.62-16.07-139.38-20.37c-50.87-4.68-101.93-7.09-152.99-8.33c-52.01-1.27-104.04-1.27-156.06-0.69
			c-47.95,0.54-95.9,1.6-143.84,2.55c-39.88,0.79-79.78,1.61-119.67,1.27c-8.14-0.07-16.28-0.2-24.41-0.41
			C196.77,146.64,201.23,148.51,202.21,148.54L202.21,148.54z"/>
	</g>
</g>
<g>
	<text transform="matrix(1 0 0 1 0 23.9529)" class="st4 st2 st5">Airspeed in kts:</text>
</g>
<g>
	<text transform="matrix(1 0 0 1 0 62.8481)" class="st1 st2 st5">Altitude in feet:</text>
</g>
</svg>
